<svg width="72" height="68" viewBox="0 0 72 68" fill="none" xmlns="http://www.w3.org/2000/svg">
<g filter="url(#filter0_f_1541_421)">
<path d="M56.6343 19.5683C53.0788 14.3896 46.1262 11.7634 35.9732 11.7634H35.9567C25.8191 11.7663 18.8836 14.3936 15.3435 19.5722C12.3797 23.9071 12 29.4337 12 33.7634C12 38.0932 12.3797 43.6192 15.3435 47.9541C18.8836 53.1322 25.8191 55.7595 35.9572 55.7634H35.9772C46.1296 55.7634 53.0794 53.1378 56.6349 47.9592C59.617 43.6147 60 38.0909 60 33.764C60 29.4371 59.6181 23.9133 56.6355 19.5694H56.6349L56.6343 19.5683Z" fill="url(#paint0_linear_1541_421)"/>
</g>
<path d="M55.973 19.9861C52.5315 14.9735 45.8017 12.4312 35.9743 12.4312H35.9577C26.1451 12.434 19.4319 14.9768 16.0058 19.9895C13.1372 24.1854 12.7695 29.5347 12.7695 33.7256C12.7695 37.9165 13.1372 43.2652 16.0058 47.4611C19.4325 52.4732 26.1457 55.0166 35.9583 55.02H35.9771C45.804 55.02 52.5308 52.4783 55.9724 47.4657C58.8592 43.2606 59.2298 37.9136 59.2298 33.7256C59.2298 29.5375 58.8598 24.1911 55.973 19.9861Z" fill="#09090A"/>
<path d="M42.5688 30.2071H42.5952C43.7533 30.207 44.8808 30.5793 45.811 31.2692C46.7413 31.959 47.425 32.9298 47.7612 34.0381C48.0973 35.1463 48.0681 36.3333 47.6779 37.4237C47.2876 38.5141 46.557 39.4501 45.594 40.0933M42.5688 30.2071C42.5856 30.0096 42.5944 29.8097 42.5952 29.6074C42.5978 27.9055 41.9427 26.2685 40.7666 25.0383C39.5906 23.8082 37.9846 23.0801 36.2844 23.0062C34.5841 22.9324 32.9211 23.5184 31.6427 24.6419C30.3644 25.7655 29.5698 27.3395 29.4248 29.0352M42.5688 30.2071C42.4926 31.0436 42.2572 31.8579 41.8755 32.6061M29.4248 29.0352C28.1767 29.1549 26.9975 29.6628 26.053 30.4874C25.1085 31.312 24.4462 32.4119 24.1592 33.6325C23.8722 34.853 23.975 36.1328 24.453 37.2919C24.9311 38.451 25.7603 39.4311 26.8243 40.0945M29.4248 29.0352C29.6143 29.0168 29.8062 29.0076 30.0006 29.0076C31.3512 29.0076 32.5975 29.4538 33.599 30.2071M35.9328 40.4463L39.0558 40.4266M39.0558 40.4266L42.1374 40.4463M39.0558 40.4266V43M34.6394 42.2336C34.4101 42.4715 34.1361 42.6616 33.8331 42.7932C33.5301 42.9247 33.204 42.995 32.8737 43C32.5434 43.005 32.2154 42.9446 31.9085 42.8223C31.6017 42.7 31.322 42.5182 31.0857 42.2874C30.0861 41.3241 30.0305 39.7325 31 38.7264C31.4667 38.246 32.1048 37.9702 32.7745 37.9595C33.4441 37.9487 34.0908 38.2039 34.5726 38.6691C35.5722 39.6324 35.6089 41.2275 34.6394 42.2336Z" stroke="#4863F7" stroke-width="1.5" stroke-linecap="round" stroke-linejoin="round"/>
<defs>
<filter id="filter0_f_1541_421" x="0.598575" y="0.362002" width="70.8029" height="66.8029" filterUnits="userSpaceOnUse" color-interpolation-filters="sRGB">
<feFlood flood-opacity="0" result="BackgroundImageFix"/>
<feBlend mode="normal" in="SourceGraphic" in2="BackgroundImageFix" result="shape"/>
<feGaussianBlur stdDeviation="5.70071" result="effect1_foregroundBlur_1541_421"/>
</filter>
<linearGradient id="paint0_linear_1541_421" x1="11.9994" y1="33.7629" x2="59.9994" y2="33.7629" gradientUnits="userSpaceOnUse">
<stop stop-color="#4863F7"/>
<stop offset="1" stop-color="#4863F7" stop-opacity="0.25"/>
</linearGradient>
</defs>
</svg>
